<svg width="73" height="13" viewBox="0 0 73 13" fill="none" xmlns="http://www.w3.org/2000/svg">
<g id="PetsPaw">
<path d="M0.894409 12.8L0.894409 0.435181L6.69281 0.435181C7.66561 0.435181 8.45921 0.620781 9.07361 0.991981C9.70081 1.36318 10.168 1.86878 10.4752 2.50878C10.7824 3.14878 10.936 3.87838 10.936 4.69758C10.936 5.52958 10.7568 6.26558 10.3984 6.90558C10.0528 7.54558 9.55361 8.04478 8.90081 8.40318C8.26081 8.74878 7.49921 8.92158 6.61601 8.92158H3.48641L3.48641 12.8H0.894409ZM3.48641 6.86718H6.07841C6.82081 6.86718 7.37761 6.67518 7.74881 6.29118C8.13281 5.89438 8.32481 5.36318 8.32481 4.69758C8.32481 3.98078 8.14561 3.43678 7.78721 3.06558C7.42881 2.68158 6.89121 2.48958 6.17441 2.48958L3.48641 2.48958L3.48641 6.86718Z" fill="white"/>
<path d="M17.1118 12.992C15.5374 12.992 14.2894 12.6016 13.3678 11.8208C12.4462 11.0272 11.9854 9.83038 11.9854 8.23038C11.9854 6.78398 12.3694 5.63838 13.1374 4.79358C13.9182 3.93598 15.0766 3.50718 16.6126 3.50718C18.0206 3.50718 19.0958 3.87838 19.8382 4.62078C20.5934 5.35038 20.971 6.31038 20.971 7.50078V9.15198L14.3854 9.15198C14.5262 9.88158 14.859 10.3808 15.3838 10.6496C15.9214 10.9184 16.6766 11.0528 17.6494 11.0528C18.1358 11.0528 18.6286 11.008 19.1278 10.9184C19.6398 10.8288 20.075 10.7136 20.4334 10.5728V12.416C20.011 12.608 19.5182 12.7488 18.955 12.8384C18.3918 12.9408 17.7774 12.992 17.1118 12.992ZM14.3854 7.55838H18.7054V7.05918C18.7054 6.53438 18.5518 6.12478 18.2446 5.83038C17.9374 5.52318 17.419 5.36958 16.6894 5.36958C15.8318 5.36958 15.2302 5.54238 14.8846 5.88798C14.5518 6.23358 14.3854 6.79038 14.3854 7.55838Z" fill="white"/>
<path d="M26.3853 12.992C25.3357 12.992 24.5549 12.7168 24.0429 12.1664C23.5437 11.616 23.2941 10.8672 23.2941 9.91998V5.69598H22.0077V3.69918H23.2941V1.74078L25.8861 0.972781V3.69918H28.1901L28.0365 5.69598H25.8861V9.74718C25.8861 10.2464 26.0013 10.592 26.2317 10.784C26.4621 10.9632 26.8205 11.0528 27.3069 11.0528C27.6653 11.0528 28.0365 10.9888 28.4205 10.8608V12.6464C28.1389 12.7616 27.8317 12.8448 27.4989 12.896C27.1661 12.96 26.7949 12.992 26.3853 12.992Z" fill="white"/>
<path d="M32.9571 12.992C32.2787 12.992 31.6323 12.9408 31.0179 12.8384C30.4035 12.7488 29.9107 12.6336 29.5395 12.4928V10.3424C29.9875 10.5216 30.4931 10.6624 31.0563 10.7648C31.6195 10.8544 32.1379 10.8992 32.6115 10.8992C33.2515 10.8992 33.6995 10.8608 33.9555 10.784C34.2243 10.7072 34.3587 10.5344 34.3587 10.2656C34.3587 9.95838 34.1539 9.73438 33.7443 9.59358C33.3475 9.45278 32.7523 9.25438 31.9587 8.99838C31.1267 8.71678 30.4867 8.37758 30.0387 7.98078C29.5907 7.58398 29.3667 6.99518 29.3667 6.21438C29.3667 5.34398 29.6803 4.67838 30.3075 4.21758C30.9475 3.74398 31.9715 3.50718 33.3795 3.50718C33.9427 3.50718 34.4739 3.55198 34.9731 3.64158C35.4723 3.71838 35.8947 3.81438 36.2403 3.92958V6.06078C35.8947 5.89438 35.4979 5.77278 35.0499 5.69598C34.6019 5.60638 34.1859 5.56158 33.8019 5.56158C33.2515 5.56158 32.8099 5.59998 32.4771 5.67678C32.1571 5.75358 31.9971 5.91998 31.9971 6.17598C31.9971 6.45758 32.1699 6.65598 32.5155 6.77118C32.8739 6.88638 33.4243 7.05918 34.1667 7.28958C34.8963 7.50718 35.4659 7.74398 35.8755 7.99998C36.2851 8.25598 36.5731 8.56318 36.7395 8.92158C36.9059 9.26718 36.9891 9.70238 36.9891 10.2272C36.9891 12.0704 35.6451 12.992 32.9571 12.992Z" fill="white"/>
<path d="M38.7882 12.8V0.435181L44.5866 0.435181C45.5594 0.435181 46.353 0.620781 46.9674 0.991981C47.5946 1.36318 48.0618 1.86878 48.369 2.50878C48.6762 3.14878 48.8298 3.87838 48.8298 4.69758C48.8298 5.52958 48.6506 6.26558 48.2922 6.90558C47.9466 7.54558 47.4474 8.04478 46.7946 8.40318C46.1546 8.74878 45.393 8.92158 44.5098 8.92158H41.3802V12.8H38.7882ZM41.3802 6.86718H43.9722C44.7146 6.86718 45.2714 6.67518 45.6426 6.29118C46.0266 5.89438 46.2186 5.36318 46.2186 4.69758C46.2186 3.98078 46.0394 3.43678 45.681 3.06558C45.3226 2.68158 44.785 2.48958 44.0682 2.48958H41.3802V6.86718Z" fill="white"/>
<path d="M52.749 12.992C52.173 12.992 51.6354 12.8896 51.1362 12.6848C50.6498 12.4672 50.253 12.1536 49.9458 11.744C49.6514 11.3216 49.5042 10.7968 49.5042 10.1696C49.5042 9.27358 49.8178 8.55678 50.445 8.01918C51.085 7.48158 52.0258 7.21278 53.2674 7.21278H55.9554V6.96318C55.9554 6.39998 55.7954 6.00318 55.4754 5.77278C55.1682 5.54238 54.541 5.42718 53.5938 5.42718C52.557 5.42718 51.5586 5.58718 50.5986 5.90718V4.08318C51.021 3.91678 51.533 3.78238 52.1346 3.67998C52.749 3.56478 53.4146 3.50718 54.1314 3.50718C55.501 3.50718 56.557 3.78878 57.2994 4.35198C58.0546 4.90238 58.4322 5.79198 58.4322 7.02078V12.8H56.1858L56.0514 11.9744C55.693 12.2944 55.2514 12.544 54.7266 12.7232C54.2018 12.9024 53.5426 12.992 52.749 12.992ZM53.4594 11.2832C54.0354 11.2832 54.5346 11.1872 54.957 10.9952C55.3794 10.8032 55.7122 10.56 55.9554 10.2656V8.82558H53.325C52.3138 8.82558 51.8082 9.24158 51.8082 10.0736C51.8082 10.88 52.3586 11.2832 53.4594 11.2832Z" fill="white"/>
<path d="M62.0479 12.8L59.6479 3.69918L62.2399 3.69918L63.6223 9.61278L65.1391 4.87038V3.69918H67.1167L68.8447 9.61278L70.1887 3.69918H72.7615L70.3807 12.8H67.9999L66.2527 7.48158L64.4671 12.8H62.0479Z" fill="white"/>
</g>
</svg>
